{
    "asset" : {
        "generator" : "Khronos glTF Blender I/O v1.4.40",
        "version" : "2.0"
    },
    "scene" : 0,
    "scenes" : [
        {
            "name" : "Scene",
            "nodes" : [
                0
            ]
        }
    ],
    "nodes" : [
        {
            "mesh" : 0,
            "name" : "Cube"
        }
    ],
    "materials" : [
        {
            "doubleSided" : true,
            "name" : "Material",
            "pbrMetallicRoughness" : {
                "baseColorFactor" : [
                    0.800000011920929,
                    0.800000011920929,
                    0.800000011920929,
                    1
                ],
                "metallicFactor" : 0,
                "roughnessFactor" : 0.4000000059604645
            }
        }
    ],
    "meshes" : [
        {
            "name" : "Cube",
            "primitives" : [
                {
                    "attributes" : {
                        "POSITION" : 0,
                        "NORMAL" : 1,
                        "TEXCOORD_0" : 2
                    },
                    "indices" : 3,
                    "material" : 0
                }
            ]
        }
    ],
    "accessors" : [
        {
            "bufferView" : 0,
            "componentType" : 5126,
            "count" : 2944,
            "max" : [
                0.9977872967720032,
                0.9972453713417053,
                0.9983846545219421
            ],
            "min" : [
                -0.9973167181015015,
                -0.9967692494392395,
                -1.0021635293960571
            ],
            "type" : "VEC3"
        },
        {
            "bufferView" : 1,
            "componentType" : 5126,
            "count" : 2944,
            "type" : "VEC3"
        },
        {
            "bufferView" : 2,
            "componentType" : 5126,
            "count" : 2944,
            "type" : "VEC2"
        },
        {
            "bufferView" : 3,
            "componentType" : 5123,
            "count" : 4404,
            "type" : "SCALAR"
        }
    ],
    "bufferViews" : [
        {
            "buffer" : 0,
            "byteLength" : 35328,
            "byteOffset" : 0
        },
        {
            "buffer" : 0,
            "byteLength" : 35328,
            "byteOffset" : 35328
        },
        {
            "buffer" : 0,
            "byteLength" : 23552,
            "byteOffset" : 70656
        },
        {
            "buffer" : 0,
            "byteLength" : 8808,
            "byteOffset" : 94208
        }
    ],
    "buffers" : [
        {
            "byteLength" : 103016,
            "uri" : "data:application/octet-stream;base64,"
        }
    ]
}
