{
    "asset" : {
        "generator" : "Khronos glTF Blender I/O v1.4.40",
        "version" : "2.0"
    },
    "scene" : 0,
    "scenes" : [
        {
            "name" : "Scene",
            "nodes" : [
                0
            ]
        }
    ],
    "nodes" : [
        {
            "mesh" : 0,
            "name" : "Icosphere"
        }
    ],
    "materials" : [
        {
            "doubleSided" : true,
            "name" : "Material.001",
            "pbrMetallicRoughness" : {
                "metallicFactor" : 0,
                "roughnessFactor" : 0.5
            }
        }
    ],
    "meshes" : [
        {
            "name" : "Icosphere",
            "primitives" : [
                {
                    "attributes" : {
                        "POSITION" : 0,
                        "NORMAL" : 1,
                        "TEXCOORD_0" : 2,
                        "COLOR_0" : 3
                    },
                    "indices" : 4,
                    "material" : 0
                }
            ]
        }
    ],
    "accessors" : [
        {
            "bufferView" : 0,
            "componentType" : 5126,
            "count" : 5235,
            "max" : [
                0.941913366317749,
                0.283113032579422,
                0.9655879139900208
            ],
            "min" : [
                -0.9449341297149658,
                -0.9714377522468567,
                -0.9655879735946655
            ],
            "type" : "VEC3"
        },
        {
            "bufferView" : 1,
            "componentType" : 5126,
            "count" : 5235,
            "type" : "VEC3"
        },
        {
            "bufferView" : 2,
            "componentType" : 5126,
            "count" : 5235,
            "type" : "VEC2"
        },
        {
            "bufferView" : 3,
            "componentType" : 5123,
            "count" : 5235,
            "normalized" : true,
            "type" : "VEC4"
        },
        {
            "bufferView" : 4,
            "componentType" : 5123,
            "count" : 7884,
            "type" : "SCALAR"
        }
    ],
    "bufferViews" : [
        {
            "buffer" : 0,
            "byteLength" : 62820,
            "byteOffset" : 0
        },
        {
            "buffer" : 0,
            "byteLength" : 62820,
            "byteOffset" : 62820
        },
        {
            "buffer" : 0,
            "byteLength" : 41880,
            "byteOffset" : 125640
        },
        {
            "buffer" : 0,
            "byteLength" : 41880,
            "byteOffset" : 167520
        },
        {
            "buffer" : 0,
            "byteLength" : 15768,
            "byteOffset" : 209400
        }
    ],
    "buffers" : [
        {
            "byteLength" : 225168,
            "uri" : "data:application/octet-stream;base64,"
        }
    ]
}
